HIERARCHY
ROOT hip
{
	OFFSET 0.000000 0.000000 0.000000
	CHANNELS 6  Xposition Yposition Zposition Xrotation Zrotation Yrotation
	JOINT abdomen
	{
		OFFSET 0.000000 3.402643 0.000000
			CHANNELS 3 Xrotation Zrotation Yrotation
		JOINT chest
		{
			OFFSET 0.000000 8.438565 -0.680529
				CHANNELS 3 Xrotation Zrotation Yrotation
			JOINT neck
			{
				OFFSET 0.000000 10.207942 -0.272212
					CHANNELS 3 Xrotation Zrotation Yrotation
				JOINT head
				{
					OFFSET 0.000000 3.130431 0.000000
						CHANNELS 3 Xrotation Zrotation Yrotation
					End Site
					{
						OFFSET 0.000000 3.130435 0.000000
					}
				}
			}
			JOINT lCollar
			{
				OFFSET 3.470700 6.669187 -0.816635
					CHANNELS 3 Yrotation Zrotation Xrotation
				JOINT lShldr
				{
					OFFSET 3.198488 0.000000 0.000000
						CHANNELS 3 Zrotation Yrotation Xrotation
					JOINT lForeArm
					{
						OFFSET 10.139888 0.000000 0.000000
							CHANNELS 3 Yrotation Zrotation Xrotation
						JOINT lHand
						{
							OFFSET 8.370511 0.000000 0.000000
								CHANNELS 3 Zrotation Yrotation Xrotation
							End Site
							{
								OFFSET 4.083176 0.000000 0.000000
							}
						}
					}
				}
			}
			JOINT rCollar
			{
				OFFSET -3.470700 6.669187 -0.816635
					CHANNELS 3 Yrotation Zrotation Xrotation
				JOINT rShldr
				{
					OFFSET -3.198488 0.000000 0.000000
						CHANNELS 3 Zrotation Yrotation Xrotation
					JOINT rForeArm
					{
						OFFSET -10.139888 0.000000 0.000000
							CHANNELS 3 Yrotation Zrotation Xrotation
						JOINT rHand
						{
							OFFSET -8.370511 0.000000 0.000000
								CHANNELS 3 Zrotation Yrotation Xrotation
							End Site
							{
								OFFSET -4.083176 0.000000 0.000000
							}
						}
					}
				}
			}
		}
	}
	JOINT lThigh 
	{
		OFFSET 5.308129 -1.633274 1.361059
			CHANNELS 3 Xrotation Zrotation Yrotation
		JOINT lShin
		{
			OFFSET -2.041588 -20.007561 0.000000
				CHANNELS 3 Xrotation Zrotation Yrotation
			JOINT lFoot
			{
				OFFSET 0.000000 -19.190928 -1.224953
					CHANNELS 3 Xrotation Yrotation Zrotation
				End Site
				{
					OFFSET 0.000000 -2.449906 4.627600
				}
			}
		}
	}
	JOINT rThigh
	{
		OFFSET -5.308129 -1.633274 1.361059
			CHANNELS 3 Xrotation Zrotation Yrotation
		JOINT rShin
		{
			OFFSET 2.041588 -20.007561 0.000000
				CHANNELS 3 Xrotation Zrotation Yrotation
			JOINT rFoot
			{
				OFFSET 0.000000 -19.190928 -1.224953
					CHANNELS 3 Xrotation Yrotation Zrotation
				End Site
				{
					OFFSET 0.000000 -2.449906 4.627600
				}
			}
		}
	}
}
MOTION
Frames: 10
Frame Time: 0.033327
-0.510809 41.443668 -6.859016 1.01 -0.79 -18.52 12.93 -4.92 5.69 -4.06 1.08 1.56 -0.84 -10.51 -2.15 1.14 17.43 -1.36 0.00 -0.00 -0.00 -79.38 -39.42 28.93 -134.23 34.46 45.57 -0.02 0.56 -4.01 0.00 -0.00 -0.00 67.61 36.46 20.05 153.33 -28.70 53.54 0.50 -2.80 -20.34 -44.64 1.25 -23.03 31.21 0.21 0.38 9.60 -11.73 0.92 -6.83 -10.51 -3.97 52.39 -0.46 0.18 -16.35 4.62 1.58 
-0.356703 41.626915 -8.161723 0.82 -0.27 -20.74 12.67 -3.33 6.18 -3.59 0.28 1.68 -0.00 -10.44 -1.87 0.74 16.14 -0.76 0.00 -0.00 -0.00 -80.42 -38.03 30.28 -134.54 34.38 45.71 -0.01 0.30 -2.16 0.00 -0.00 -0.00 67.33 37.19 21.15 153.16 -28.76 53.48 0.49 -2.77 -20.13 -42.62 2.83 -22.83 28.31 0.17 0.45 5.95 -5.96 0.14 -6.59 -11.24 -4.25 49.28 -0.43 0.08 -20.38 5.53 2.44 
-0.118997 41.706051 -9.483174 0.67 0.66 -23.70 13.11 -2.61 6.68 -4.17 0.76 1.79 -0.47 -10.10 -1.20 1.44 13.43 0.44 0.00 -0.00 -0.00 -81.65 -38.03 31.68 -134.50 34.40 45.69 -0.00 0.10 -0.71 0.00 -0.00 -0.00 67.61 36.51 23.74 151.79 -29.27 52.98 0.43 -2.59 -18.76 -42.45 4.47 -20.32 28.40 0.16 0.42 3.62 -0.36 -0.01 -8.10 -12.37 -4.45 47.90 -0.41 0.07 -23.31 5.20 2.59 
0.198521 41.665916 -10.650032 0.23 1.66 -26.47 13.95 -2.04 6.47 -4.79 1.72 1.68 -1.32 -9.67 -0.15 2.18 10.69 2.28 0.00 -0.00 -0.00 -82.90 -38.26 33.31 -134.41 34.42 45.65 -0.00 -0.00 -0.00 0.00 -0.00 -0.00 68.80 35.06 26.87 148.95 -30.28 51.89 0.30 -2.17 -15.68 -43.19 5.47 -17.28 32.36 0.21 0.27 3.46 1.52 0.03 -10.36 -13.54 -4.08 48.08 -0.41 0.12 -25.68 5.00 2.76 
0.532410 41.569550 -11.712077 -0.13 2.11 -28.80 15.14 -0.87 5.66 -4.68 2.01 1.40 -2.69 -8.80 1.09 1.98 9.30 4.28 0.00 -0.00 -0.00 -82.86 -39.87 34.52 -133.97 34.52 45.45 -0.00 0.05 -0.33 0.00 -0.00 -0.00 70.57 33.52 29.02 145.90 -31.28 50.67 0.27 -2.05 -14.80 -44.59 6.43 -14.89 39.50 0.29 0.05 3.44 0.90 0.05 -12.55 -13.40 -2.56 48.66 -0.40 0.25 -27.61 3.96 2.30 
0.908700 41.488953 -12.537848 -0.78 2.61 -31.37 16.39 -0.38 4.75 -4.85 2.98 1.08 -3.45 -8.09 2.14 1.67 8.37 6.04 0.00 -0.00 -0.00 -82.42 -41.08 34.53 -133.86 34.54 45.40 -0.00 0.04 -0.28 0.00 -0.00 -0.00 71.94 30.72 30.28 143.44 -32.04 49.64 0.22 -1.89 -13.55 -45.25 7.34 -12.11 47.73 0.38 -0.17 2.67 1.47 0.16 -14.68 -13.03 0.14 49.47 -0.40 0.40 -28.90 2.48 1.40 
1.380356 41.461922 -13.123822 -1.21 3.09 -33.84 16.89 0.58 3.70 -4.15 3.28 0.76 -3.76 -7.25 2.95 0.60 6.86 7.34 0.00 -0.00 -0.00 -81.96 -41.93 33.49 -133.78 34.56 45.36 -0.00 0.14 -1.01 0.00 -0.00 -0.00 73.23 29.15 31.18 141.99 -32.47 49.03 0.14 -1.48 -10.62 -45.21 8.19 -9.18 55.69 0.48 -0.35 1.91 3.07 0.41 -17.40 -13.08 2.57 50.94 -0.41 0.50 -28.18 2.11 1.13 
1.871529 41.584503 -13.454619 -1.89 3.55 -35.87 17.14 1.15 2.72 -4.17 3.92 0.44 -3.30 -6.46 3.60 0.81 5.29 8.48 0.00 -0.00 -0.00 -82.87 -41.03 33.04 -133.34 34.65 45.16 -0.00 0.03 -0.24 0.00 -0.00 -0.00 73.58 27.90 31.50 142.98 -32.18 49.46 0.19 -1.74 -12.49 -43.86 8.52 -6.80 62.21 0.57 -0.49 0.55 3.81 0.68 -19.02 -13.87 3.97 51.44 -0.41 0.53 -27.12 2.99 1.71 
2.300669 41.727123 -13.646586 -2.67 3.93 -38.05 17.00 1.16 2.41 -4.18 4.35 0.35 -2.75 -6.04 4.03 1.65 4.46 9.28 0.00 -0.00 -0.00 -83.27 -41.48 33.23 -132.73 34.79 44.87 -0.00 -0.09 0.67 0.00 -0.00 -0.00 73.55 27.83 31.28 144.09 -31.85 49.92 0.21 -1.82 -13.06 -41.21 9.12 -3.87 67.16 0.65 -0.58 0.26 2.77 0.65 -20.16 -14.54 5.64 51.37 -0.41 0.53 -26.04 4.03 2.34 
2.672052 41.832047 -13.797873 -3.06 4.03 -40.08 16.54 0.93 2.40 -4.07 4.75 0.37 -2.65 -5.72 4.36 2.38 3.99 9.87 0.00 -0.00 -0.00 -83.19 -41.57 33.57 -132.77 34.78 44.89 -0.00 -0.14 1.00 0.00 -0.00 -0.00 73.36 28.38 30.97 145.22 -31.50 50.39 0.19 -1.74 -12.48 -38.20 10.12 -1.33 70.82 0.70 -0.63 0.48 2.40 0.65 -21.29 -14.51 7.34 51.42 -0.41 0.53 -25.20 4.47 2.56 
